# xmcd
#
# Track frame offsets:
#	150
#	24940
#	49570
#	64715
#	85080
#	102245
#	116997
#	147742
#	172805
#	190642
#	212465
#	233475
#	261635
#	277382
#	288335
#	301682
#
# Disc length: 4286 seconds
#
# Revision: 1
# Processed by: cddbd v1.5PL3 Copyright (c) Steve Scherf et al.
# Submitted via: CDex 1.50Beta5
#
DISCID=e110bc10
DTITLE=Various Artist - Nature〜relaxation japan〜
DYEAR=1900
DGENRE=
TTITLE0=カレヤラ
TTITLE1=KUMAGERA
TTITLE2=夏の風車
TTITLE3=夜間飛行
TTITLE4=COSMIC LULLABY
TTITLE5=北飛行
TTITLE6=Thinking of you
TTITLE7=FLYING
TTITLE8=White Night
TTITLE9=THERE IS A SHIP
TTITLE10=太陽の祈り
TTITLE11=Sign of Love
TTITLE12=水車
TTITLE13=bird
TTITLE14=いにしえの星
TTITLE15=LAST PAGE OF A FAIRY TALE
EXTD=
EXTT0=
EXTT1=
EXTT2=
EXTT3=
EXTT4=
EXTT5=
EXTT6=
EXTT7=
EXTT8=
EXTT9=
EXTT10=
EXTT11=
EXTT12=
EXTT13=
EXTT14=
EXTT15=
PLAYORDER=
